<svg xmlns="http://www.w3.org/2000/svg" xmlns:xlink="http://www.w3.org/1999/xlink" viewBox="0 0 1200 1200"><defs><style>.cls-1{fill:#fb6602;}.cls-2{fill:url(#Degradado_sin_nombre_19);}.cls-3{fill:url(#Degradado_sin_nombre_19-2);}.cls-4{fill:url(#Degradado_sin_nombre_19-3);}.cls-5{fill:url(#Degradado_sin_nombre_19-4);}.cls-6{fill:#fff;}</style><radialGradient id="Degradado_sin_nombre_19" cx="606.7" cy="412" r="0.86" gradientUnits="userSpaceOnUse"><stop offset="0" stop-color="#fff"/><stop offset="0.2" stop-color="#fff"/><stop offset="1" stop-color="#fb6602"/></radialGradient><radialGradient id="Degradado_sin_nombre_19-2" cx="409.59" cy="631.05" r="0.78" xlink:href="#Degradado_sin_nombre_19"/><radialGradient id="Degradado_sin_nombre_19-3" cx="495.22" cy="742.56" r="0.62" xlink:href="#Degradado_sin_nombre_19"/><radialGradient id="Degradado_sin_nombre_19-4" cx="718.24" cy="742.56" r="0.62" xlink:href="#Degradado_sin_nombre_19"/></defs><title>ondas final 5</title><g id="fondo"><rect width="1200" height="1200"/></g><g id="logo"><path class="cls-1" d="M769.75,627.39v-.08h-4.5v-8h-7.78v8H752V597.66h-5.58v29.65h-5.69V597.66h-1.87l-.91-25.82L737,597.66h-1.87v29.65h-7.38V542.5h-2.31v-1.88h-3.66V528.2h-2.59v-18H717.4l-1-43.54-1,43.54h-1.77v18h-2.88v12.16h-3v2.14H704.2v17.57h2.25v27.32H693v8.16h-7.27v-2.7h-4.05v9.91h-7.61V556h-17.4v71.35h-2.53V575.22h-2.87v-96.8H628.46V504.6h-2.31V395.3h-6v37.84h-4.73v33.34h-2.7V283h-8L600.81,85.12l-3,197.89h-4l-1.2-56.57L591.85,283h-2V466.48h-1.8V264H584V520.77h-5.3V325.24h-8.11v64h-7.88v52.71h4V542.28H550.35V399.13h-6.19V356.19H538v42.94h-8.36V628.27h-5.91V584.51h3V518.29h-9.18v73H514v37h-3.43v-41.9h-7.94v41.9h-7v-59h-3.37v36.06h-5.19v23h-5.46v-23h-3.38v23h-3.8V604.53H471v23.74h-1.77V588.79h-3.38v39.48h-1.07v-12h-3.38v12h-1.74V604.53h-3.38v23.74l-111.17,2.09,111.17,3.94h9.57v37.61h3.38V634.3h33.37v35.87h7.94V634.3H514V770.86h9.72V634.3H527V676h3.26v32.66h2.14V634.3h2.71v76h1.57v54.74h7.44V710.32h5.35V663.69h10V649.33h7.27v84.15h3.88V686.56h6v33.78h17.24v50.52h9.22l5.31,362.49,2.32-362.49h8.83V717.64h10V690.27h3.89V784h5.07V690.27H646V807.69h7.09V688.52h1V633.85h2.53v31.08h1v67.41h3.21V772h4.22v-39.7h3.21V695.51h6.08V664.93h11.32V633.85h5.41v40.2H702v34.41h7.43V677.77H716V633.85h3.21v129.4h8.56V633.85h42v-.08l109.76-3.19Zm-233-14.94h-2.36V433.14h2.36Zm9.58-18.14H542V433.14h4.28Zm90.61-19.09h-4.4V511.53h4.4Zm9.29,0H642V511.53h4.23ZM668,602.76h-5.24V581H668Zm23.15,24.55h-5.41V599.78h5.41Zm9.23-27.76h-5.29v-9.12h5.29Zm18.81,27.76H716V560.07h3.21Z"/><path class="cls-2" d="M606.7,410.81c0-.21,0,.59,0,2.41h0C606.71,411.88,606.71,411.07,606.7,410.81Z"/><path class="cls-3" d="M408.52,631.05h0Z"/><path class="cls-4" d="M494.61,743.17l1.23-1.23Z"/><path class="cls-5" d="M717.62,741.94l1.22,1.23C718.71,743,718.3,742.61,717.62,741.94Z"/><path class="cls-6" d="M608,605.12h0c-.42,0-.84-.06-1.27-.06s-.84,0-1.27.06H608Z"/><rect class="cls-1" x="781.69" y="636.7" width="2.53" height="2.55"/><rect class="cls-1" x="781.74" y="641.69" width="2.43" height="2.43"/><rect class="cls-1" x="781.75" y="646.64" width="2.4" height="2.32"/><rect class="cls-1" x="781.85" y="651.63" width="2.2" height="2.19"/><rect class="cls-1" x="781.92" y="656.57" width="2.07" height="2.07"/><rect class="cls-1" x="781.97" y="661.52" width="1.97" height="1.99"/><rect class="cls-1" x="782.04" y="666.51" width="1.83" height="1.85"/><rect class="cls-1" x="782.09" y="671.47" width="1.73" height="1.73"/><rect class="cls-1" x="782.15" y="676.45" width="1.61" height="1.61"/><rect class="cls-1" x="782.2" y="681.49" width="1.49" height="1.41"/><rect class="cls-1" x="782.31" y="686.46" width="1.27" height="1.3"/><rect class="cls-1" x="782.37" y="691.45" width="1.15" height="1.18"/><rect class="cls-1" x="782.42" y="696.41" width="1.05" height="1.05"/><rect class="cls-1" x="782.53" y="701.37" width="0.83" height="0.94"/><rect class="cls-1" x="782.54" y="706.36" width="0.8" height="0.8"/><rect class="cls-1" x="781.1" y="620.28" width="2.53" height="2.55" transform="translate(1564.73 1243.11) rotate(-180)"/><rect class="cls-1" x="781.15" y="615.42" width="2.43" height="2.43" transform="translate(1564.73 1233.26) rotate(-180)"/><rect class="cls-1" x="781.16" y="610.57" width="2.4" height="2.32" transform="translate(1564.73 1223.47) rotate(-180)"/><rect class="cls-1" x="781.26" y="605.72" width="2.2" height="2.19" transform="translate(1564.73 1213.62) rotate(-180)"/><rect class="cls-1" x="781.33" y="600.89" width="2.07" height="2.07" transform="translate(1564.73 1203.85) rotate(-180)"/><rect class="cls-1" x="781.38" y="596.02" width="1.97" height="1.99" transform="translate(1564.73 1194.03) rotate(-180)"/><rect class="cls-1" x="781.45" y="591.17" width="1.83" height="1.85" transform="translate(1564.73 1184.2) rotate(-180)"/><rect class="cls-1" x="781.5" y="586.33" width="1.73" height="1.73" transform="translate(1564.73 1174.39) rotate(-180)"/><rect class="cls-1" x="781.56" y="581.48" width="1.61" height="1.61" transform="translate(1564.73 1164.56) rotate(-180)"/><rect class="cls-1" x="781.63" y="576.63" width="1.49" height="1.41" transform="translate(1564.75 1154.68) rotate(-180)"/><rect class="cls-1" x="781.74" y="571.77" width="1.27" height="1.3" transform="translate(1564.75 1144.84) rotate(-180)"/><rect class="cls-1" x="781.8" y="566.91" width="1.15" height="1.18" transform="translate(1564.75 1135) rotate(-180)"/><rect class="cls-1" x="781.85" y="562.08" width="1.05" height="1.05" transform="translate(1564.75 1125.2) rotate(-180)"/><rect class="cls-1" x="781.96" y="557.22" width="0.83" height="0.94" transform="translate(1564.75 1115.38) rotate(-180)"/><rect class="cls-1" x="781.97" y="552.36" width="0.8" height="0.8" transform="translate(1564.75 1105.53) rotate(-180)"/><rect class="cls-1" x="760.1" y="614.08" width="2.53" height="2.55" transform="translate(1522.72 1230.71) rotate(-180)"/><rect class="cls-1" x="760.15" y="609.22" width="2.43" height="2.43" transform="translate(1522.72 1220.87) rotate(-180)"/><rect class="cls-1" x="760.16" y="604.37" width="2.4" height="2.32" transform="translate(1522.72 1211.07) rotate(-180)"/><rect class="cls-1" x="760.26" y="599.52" width="2.2" height="2.19" transform="translate(1522.72 1201.22) rotate(-180)"/><rect class="cls-1" x="760.32" y="594.69" width="2.07" height="2.07" transform="translate(1522.72 1191.45) rotate(-180)"/><rect class="cls-1" x="760.37" y="589.82" width="1.97" height="1.99" transform="translate(1522.72 1181.63) rotate(-180)"/><rect class="cls-1" x="760.45" y="584.97" width="1.83" height="1.85" transform="translate(1522.72 1171.8) rotate(-180)"/><rect class="cls-1" x="760.49" y="580.13" width="1.73" height="1.73" transform="translate(1522.72 1161.99) rotate(-180)"/><rect class="cls-1" x="760.56" y="575.28" width="1.61" height="1.61" transform="translate(1522.72 1152.16) rotate(-180)"/><rect class="cls-1" x="760.79" y="636.7" width="2.53" height="2.55"/><rect class="cls-1" x="760.84" y="641.69" width="2.43" height="2.43"/><rect class="cls-1" x="760.85" y="646.64" width="2.4" height="2.32"/><rect class="cls-1" x="760.95" y="651.63" width="2.2" height="2.19"/><rect class="cls-1" x="761.01" y="656.57" width="2.07" height="2.07"/><rect class="cls-1" x="761.06" y="661.52" width="1.97" height="1.99"/><rect class="cls-1" x="761.14" y="666.51" width="1.83" height="1.85"/><rect class="cls-1" x="761.18" y="671.47" width="1.73" height="1.73"/><rect class="cls-1" x="761.25" y="676.45" width="1.61" height="1.61"/><rect class="cls-1" x="746.14" y="636.7" width="4.69" height="4.82"/><rect class="cls-1" x="746.35" y="644.04" width="4.26" height="4.52"/><rect class="cls-1" x="746.41" y="651.58" width="4.15" height="4.15"/><rect class="cls-1" x="746.52" y="659.01" width="3.93" height="3.9"/><rect class="cls-1" x="746.61" y="666.34" width="3.75" height="3.79"/><rect class="cls-1" x="746.68" y="673.75" width="3.6" height="3.6"/><rect class="cls-1" x="746.7" y="681.1" width="3.56" height="3.45"/><rect class="cls-1" x="746.85" y="688.52" width="3.27" height="3.25"/><rect class="cls-1" x="746.94" y="695.87" width="3.08" height="3.08"/><rect class="cls-1" x="747.02" y="703.22" width="2.93" height="2.95"/><rect class="cls-1" x="747.12" y="710.62" width="2.72" height="2.75"/><rect class="cls-1" x="747.2" y="718" width="2.57" height="2.57"/><rect class="cls-1" x="747.29" y="725.39" width="2.39" height="2.39"/><rect class="cls-1" x="747.36" y="732.88" width="2.22" height="2.1"/><rect class="cls-1" x="747.52" y="740.27" width="1.89" height="1.93"/><rect class="cls-1" x="747.61" y="747.67" width="1.7" height="1.75"/><rect class="cls-1" x="735.56" y="636.7" width="4.68" height="4.71"/><rect class="cls-1" x="735.7" y="642.15" width="4.45" height="4.56"/><rect class="cls-1" x="735.68" y="647.26" width="4.49" height="4.71"/><rect class="cls-1" x="735.79" y="652.48" width="4.28" height="4.38"/><rect class="cls-1" x="735.92" y="657.42" width="4.02" height="4.24"/><rect class="cls-1" x="735.99" y="662.4" width="3.87" height="4.02"/><rect class="cls-1" x="735.99" y="667.31" width="3.87" height="3.87"/><rect class="cls-1" x="736.03" y="672.2" width="3.78" height="3.87"/><rect class="cls-1" x="736.08" y="677.19" width="3.69" height="3.69"/><rect class="cls-1" x="736.12" y="682.12" width="3.61" height="3.48"/><rect class="cls-1" x="736.25" y="687.06" width="3.35" height="3.48"/><rect class="cls-1" x="736.25" y="692.01" width="3.35" height="3.23"/><rect class="cls-1" x="736.35" y="696.94" width="3.14" height="3.23"/><rect class="cls-1" x="736.5" y="701.85" width="2.85" height="3.02"/><rect class="cls-1" x="736.53" y="706.9" width="2.78" height="2.78"/><rect class="cls-1" x="736.61" y="711.87" width="2.63" height="2.61"/><rect class="cls-1" x="736.67" y="716.77" width="2.51" height="2.54"/><rect class="cls-1" x="736.72" y="721.73" width="2.41" height="2.41"/><rect class="cls-1" x="736.73" y="726.65" width="2.38" height="2.31"/><rect class="cls-1" x="736.83" y="731.61" width="2.19" height="2.17"/><rect class="cls-1" x="736.89" y="736.52" width="2.06" height="2.06"/><rect class="cls-1" x="736.94" y="741.44" width="1.96" height="1.98"/><rect class="cls-1" x="737.01" y="746.39" width="1.82" height="1.84"/><rect class="cls-1" x="737.06" y="751.33" width="1.72" height="1.72"/><rect class="cls-1" x="737.13" y="756.27" width="1.6" height="1.6"/><rect class="cls-1" x="737.17" y="761.28" width="1.48" height="1.4"/><rect class="cls-1" x="737.28" y="766.23" width="1.26" height="1.29"/><rect class="cls-1" x="737.34" y="771.18" width="1.14" height="1.17"/><rect class="cls-1" x="737.39" y="776.11" width="1.04" height="1.04"/><rect class="cls-1" x="737.5" y="781.04" width="0.82" height="0.93"/><rect class="cls-1" x="737.52" y="786.01" width="0.8" height="0.8"/><rect class="cls-1" x="721.66" y="765.57" width="3.61" height="3.48"/><rect class="cls-1" x="721.79" y="770.52" width="3.35" height="3.48"/><rect class="cls-1" x="721.79" y="775.46" width="3.35" height="3.23"/><rect class="cls-1" x="721.89" y="780.4" width="3.14" height="3.23"/><rect class="cls-1" x="722.03" y="785.3" width="2.85" height="3.02"/><rect class="cls-1" x="722.07" y="790.35" width="2.78" height="2.78"/><rect class="cls-1" x="722.15" y="795.32" width="2.63" height="2.61"/><rect class="cls-1" x="722.2" y="800.22" width="2.51" height="2.54"/><rect class="cls-1" x="722.25" y="805.18" width="2.41" height="2.41"/><rect class="cls-1" x="722.27" y="810.1" width="2.38" height="2.31"/><rect class="cls-1" x="722.36" y="815.06" width="2.19" height="2.17"/><rect class="cls-1" x="722.43" y="819.97" width="2.06" height="2.06"/><rect class="cls-1" x="722.48" y="824.89" width="1.96" height="1.98"/><rect class="cls-1" x="722.55" y="829.85" width="1.82" height="1.84"/><rect class="cls-1" x="722.6" y="834.78" width="1.72" height="1.72"/><rect class="cls-1" x="722.66" y="839.73" width="1.6" height="1.6"/><rect class="cls-1" x="722.71" y="844.73" width="1.48" height="1.4"/><rect class="cls-1" x="722.82" y="849.68" width="1.26" height="1.29"/><rect class="cls-1" x="722.88" y="854.63" width="1.14" height="1.17"/><rect class="cls-1" x="722.93" y="859.56" width="1.04" height="1.04"/><rect class="cls-1" x="723.04" y="864.5" width="0.82" height="0.93"/><rect class="cls-1" x="723.05" y="869.46" width="0.8" height="0.8"/><rect class="cls-1" x="691.14" y="676.67" width="5.65" height="5.79"/><rect class="cls-1" x="691.21" y="684.12" width="5.51" height="5.51"/><rect class="cls-1" x="691.27" y="691.5" width="5.39" height="5.2"/><rect class="cls-1" x="691.46" y="698.89" width="5" height="5.2"/><rect class="cls-1" x="691.46" y="706.28" width="5" height="4.82"/><rect class="cls-1" x="691.61" y="713.66" width="4.69" height="4.82"/><rect class="cls-1" x="691.83" y="720.99" width="4.26" height="4.52"/><rect class="cls-1" x="691.88" y="728.54" width="4.15" height="4.15"/><rect class="cls-1" x="692" y="735.97" width="3.93" height="3.9"/><rect class="cls-1" x="692.08" y="743.3" width="3.75" height="3.79"/><rect class="cls-1" x="692.16" y="750.71" width="3.6" height="3.6"/><rect class="cls-1" x="692.18" y="758.06" width="3.56" height="3.45"/><rect class="cls-1" x="692.32" y="765.48" width="3.27" height="3.25"/><rect class="cls-1" x="692.42" y="772.82" width="3.08" height="3.08"/><rect class="cls-1" x="692.49" y="780.18" width="2.93" height="2.95"/><rect class="cls-1" x="692.6" y="787.58" width="2.72" height="2.75"/><rect class="cls-1" x="692.67" y="794.96" width="2.57" height="2.57"/><rect class="cls-1" x="692.77" y="802.35" width="2.39" height="2.39"/><rect class="cls-1" x="692.84" y="809.84" width="2.22" height="2.1"/><rect class="cls-1" x="693" y="817.23" width="1.89" height="1.93"/><rect class="cls-1" x="693.09" y="824.63" width="1.7" height="1.75"/><rect class="cls-1" x="693.17" y="832.01" width="1.55" height="1.55"/><rect class="cls-1" x="693.33" y="839.38" width="1.23" height="1.4"/><rect class="cls-1" x="693.35" y="846.8" width="1.19" height="1.19"/><rect class="cls-1" x="679.08" y="666.53" width="5.65" height="5.79"/><rect class="cls-1" x="679.15" y="673.98" width="5.51" height="5.51"/><rect class="cls-1" x="679.21" y="681.36" width="5.39" height="5.2"/><rect class="cls-1" x="679.4" y="688.75" width="5" height="5.2"/><rect class="cls-1" x="679.4" y="696.14" width="5" height="4.82"/><rect class="cls-1" x="679.55" y="703.52" width="4.69" height="4.82"/><rect class="cls-1" x="679.77" y="710.85" width="4.26" height="4.52"/><rect class="cls-1" x="679.82" y="718.4" width="4.15" height="4.15"/><rect class="cls-1" x="679.93" y="725.83" width="3.93" height="3.9"/><rect class="cls-1" x="680.02" y="733.16" width="3.75" height="3.79"/><rect class="cls-1" x="680.1" y="740.56" width="3.6" height="3.6"/><rect class="cls-1" x="680.12" y="747.92" width="3.56" height="3.45"/><rect class="cls-1" x="680.26" y="755.33" width="3.27" height="3.25"/><rect class="cls-1" x="680.36" y="762.68" width="3.08" height="3.08"/><rect class="cls-1" x="680.43" y="770.04" width="2.93" height="2.95"/><rect class="cls-1" x="680.54" y="777.44" width="2.72" height="2.75"/><rect class="cls-1" x="680.61" y="784.82" width="2.57" height="2.57"/><rect class="cls-1" x="680.71" y="792.21" width="2.39" height="2.39"/><rect class="cls-1" x="680.77" y="799.69" width="2.22" height="2.1"/><rect class="cls-1" x="680.94" y="807.09" width="1.89" height="1.93"/><rect class="cls-1" x="681.03" y="814.49" width="1.7" height="1.75"/><rect class="cls-1" x="681.11" y="821.86" width="1.55" height="1.55"/><rect class="cls-1" x="681.27" y="829.24" width="1.23" height="1.4"/><rect class="cls-1" x="681.29" y="836.66" width="1.19" height="1.19"/><rect class="cls-1" x="659.81" y="776.63" width="6.4" height="6.54"/><rect class="cls-1" x="660.01" y="784.02" width="6.01" height="6.34"/><rect class="cls-1" x="660.11" y="791.46" width="5.79" height="6.01"/><rect class="cls-1" x="660.11" y="798.8" width="5.79" height="5.79"/><rect class="cls-1" x="660.18" y="806.12" width="5.65" height="5.79"/><rect class="cls-1" x="660.25" y="813.57" width="5.51" height="5.51"/><rect class="cls-1" x="660.31" y="820.94" width="5.39" height="5.2"/><rect class="cls-1" x="660.5" y="828.33" width="5" height="5.2"/><rect class="cls-1" x="660.5" y="835.73" width="5" height="4.82"/><rect class="cls-1" x="660.66" y="843.1" width="4.69" height="4.82"/><rect class="cls-1" x="660.88" y="850.44" width="4.26" height="4.52"/><rect class="cls-1" x="660.93" y="857.98" width="4.15" height="4.15"/><rect class="cls-1" x="661.04" y="865.41" width="3.93" height="3.9"/><rect class="cls-1" x="661.13" y="872.74" width="3.75" height="3.79"/><rect class="cls-1" x="661.2" y="880.15" width="3.6" height="3.6"/><rect class="cls-1" x="661.22" y="887.5" width="3.56" height="3.45"/><rect class="cls-1" x="661.37" y="894.92" width="3.27" height="3.25"/><rect class="cls-1" x="661.47" y="902.26" width="3.08" height="3.08"/><rect class="cls-1" x="661.54" y="909.62" width="2.93" height="2.95"/><rect class="cls-1" x="661.65" y="917.02" width="2.72" height="2.75"/><rect class="cls-1" x="661.72" y="924.4" width="2.57" height="2.57"/><rect class="cls-1" x="661.81" y="931.79" width="2.39" height="2.39"/><rect class="cls-1" x="661.88" y="939.28" width="2.22" height="2.1"/><rect class="cls-1" x="662.04" y="946.67" width="1.89" height="1.93"/><rect class="cls-1" x="662.14" y="954.07" width="1.7" height="1.75"/><rect class="cls-1" x="646.75" y="811.13" width="5.65" height="5.79"/><rect class="cls-1" x="646.82" y="818.58" width="5.51" height="5.51"/><rect class="cls-1" x="646.88" y="825.96" width="5.39" height="5.2"/><rect class="cls-1" x="647.07" y="833.35" width="5" height="5.2"/><rect class="cls-1" x="647.07" y="840.74" width="5" height="4.82"/><rect class="cls-1" x="647.23" y="848.12" width="4.69" height="4.82"/><rect class="cls-1" x="647.44" y="855.46" width="4.26" height="4.52"/><rect class="cls-1" x="647.5" y="863" width="4.15" height="4.15"/><rect class="cls-1" x="647.61" y="870.43" width="3.93" height="3.9"/><rect class="cls-1" x="647.7" y="877.76" width="3.75" height="3.79"/><rect class="cls-1" x="647.77" y="885.17" width="3.6" height="3.6"/><rect class="cls-1" x="647.79" y="892.52" width="3.56" height="3.45"/><rect class="cls-1" x="647.94" y="899.94" width="3.27" height="3.25"/><rect class="cls-1" x="648.04" y="907.28" width="3.08" height="3.08"/><rect class="cls-1" x="648.11" y="914.64" width="2.93" height="2.95"/><rect class="cls-1" x="648.22" y="922.04" width="2.72" height="2.75"/><rect class="cls-1" x="648.29" y="929.42" width="2.57" height="2.57"/><rect class="cls-1" x="648.38" y="936.81" width="2.39" height="2.39"/><rect class="cls-1" x="648.45" y="944.3" width="2.22" height="2.1"/><rect class="cls-1" x="648.61" y="951.69" width="1.89" height="1.93"/><rect class="cls-1" x="632.56" y="787.58" width="6.66" height="6.81"/><rect class="cls-1" x="632.54" y="795.22" width="6.71" height="7.04"/><rect class="cls-1" x="632.69" y="803.02" width="6.4" height="6.54"/><rect class="cls-1" x="632.89" y="810.41" width="6.01" height="6.34"/><rect class="cls-1" x="633" y="817.85" width="5.79" height="6.01"/><rect class="cls-1" x="633" y="825.19" width="5.79" height="5.79"/><rect class="cls-1" x="633.07" y="832.51" width="5.65" height="5.79"/><rect class="cls-1" x="633.14" y="839.96" width="5.51" height="5.51"/><rect class="cls-1" x="633.2" y="847.33" width="5.39" height="5.2"/><rect class="cls-1" x="633.39" y="854.72" width="5" height="5.2"/><rect class="cls-1" x="633.39" y="862.12" width="5" height="4.82"/><rect class="cls-1" x="633.54" y="869.49" width="4.69" height="4.82"/><rect class="cls-1" x="633.76" y="876.83" width="4.26" height="4.52"/><rect class="cls-1" x="633.81" y="884.37" width="4.15" height="4.15"/><rect class="cls-1" x="633.93" y="891.8" width="3.93" height="3.9"/><rect class="cls-1" x="634.01" y="899.13" width="3.75" height="3.79"/><rect class="cls-1" x="634.09" y="906.54" width="3.6" height="3.6"/><rect class="cls-1" x="634.11" y="913.89" width="3.56" height="3.45"/><rect class="cls-1" x="634.25" y="921.31" width="3.27" height="3.25"/><rect class="cls-1" x="634.35" y="928.66" width="3.08" height="3.08"/><rect class="cls-1" x="634.42" y="936.01" width="2.93" height="2.95"/><rect class="cls-1" x="634.53" y="943.42" width="2.72" height="2.75"/><rect class="cls-1" x="634.6" y="950.79" width="2.57" height="2.57"/><rect class="cls-1" x="634.7" y="958.18" width="2.39" height="2.39"/><rect class="cls-1" x="634.77" y="965.67" width="2.22" height="2.1"/><rect class="cls-1" x="634.93" y="973.06" width="1.89" height="1.93"/><rect class="cls-1" x="635.02" y="980.47" width="1.7" height="1.75"/><rect class="cls-1" x="635.1" y="987.84" width="1.55" height="1.55"/><rect class="cls-1" x="635.26" y="995.22" width="1.23" height="1.4"/><rect class="cls-1" x="635.28" y="1002.63" width="1.19" height="1.19"/><rect class="cls-1" x="593.83" y="773.99" width="7" height="7.04"/><rect class="cls-1" x="594.03" y="782.14" width="6.66" height="6.81"/><rect class="cls-1" x="594" y="789.77" width="6.71" height="7.04"/><rect class="cls-1" x="594.16" y="797.58" width="6.4" height="6.54"/><rect class="cls-1" x="594.35" y="804.97" width="6.01" height="6.34"/><rect class="cls-1" x="594.46" y="812.41" width="5.79" height="6.01"/><rect class="cls-1" x="594.46" y="819.75" width="5.79" height="5.79"/><rect class="cls-1" x="594.53" y="827.07" width="5.65" height="5.79"/><rect class="cls-1" x="594.6" y="834.51" width="5.51" height="5.51"/><rect class="cls-1" x="594.66" y="841.89" width="5.39" height="5.2"/><rect class="cls-1" x="594.85" y="849.28" width="5" height="5.2"/><rect class="cls-1" x="594.85" y="856.67" width="5" height="4.82"/><rect class="cls-1" x="595.01" y="864.05" width="4.69" height="4.82"/><rect class="cls-1" x="595.22" y="871.39" width="4.26" height="4.52"/><rect class="cls-1" x="595.28" y="878.93" width="4.15" height="4.15"/><rect class="cls-1" x="595.39" y="886.36" width="3.93" height="3.9"/><rect class="cls-1" x="595.48" y="893.69" width="3.75" height="3.79"/><rect class="cls-1" x="595.55" y="901.1" width="3.6" height="3.6"/><rect class="cls-1" x="595.57" y="908.45" width="3.56" height="3.45"/><rect class="cls-1" x="595.72" y="915.87" width="3.27" height="3.25"/><rect class="cls-1" x="595.81" y="923.21" width="3.08" height="3.08"/><rect class="cls-1" x="595.89" y="930.57" width="2.93" height="2.95"/><rect class="cls-1" x="595.99" y="937.97" width="2.72" height="2.75"/><rect class="cls-1" x="596.07" y="945.35" width="2.57" height="2.57"/><rect class="cls-1" x="596.16" y="952.74" width="2.39" height="2.39"/><rect class="cls-1" x="596.23" y="960.23" width="2.22" height="2.1"/><rect class="cls-1" x="596.39" y="967.62" width="1.89" height="1.93"/><rect class="cls-1" x="596.48" y="975.02" width="1.7" height="1.75"/><rect class="cls-1" x="596.56" y="982.4" width="1.55" height="1.55"/><rect class="cls-1" x="596.72" y="989.77" width="1.23" height="1.4"/><rect class="cls-1" x="596.74" y="997.19" width="1.19" height="1.19"/><rect class="cls-1" x="576.59" y="724.07" width="7" height="7.04"/><rect class="cls-1" x="576.79" y="732.21" width="6.66" height="6.81"/><rect class="cls-1" x="576.77" y="739.85" width="6.71" height="7.04"/><rect class="cls-1" x="576.92" y="747.66" width="6.4" height="6.54"/><rect class="cls-1" x="577.12" y="755.05" width="6.01" height="6.34"/><rect class="cls-1" x="577.23" y="762.49" width="5.79" height="6.01"/><rect class="cls-1" x="577.23" y="769.82" width="5.79" height="5.79"/><rect class="cls-1" x="577.3" y="777.14" width="5.65" height="5.79"/><rect class="cls-1" x="577.37" y="784.59" width="5.51" height="5.51"/><rect class="cls-1" x="577.43" y="791.97" width="5.39" height="5.2"/><rect class="cls-1" x="577.62" y="799.36" width="5" height="5.2"/><rect class="cls-1" x="577.62" y="806.75" width="5" height="4.82"/><rect class="cls-1" x="577.77" y="814.13" width="4.69" height="4.82"/><rect class="cls-1" x="577.99" y="821.46" width="4.26" height="4.52"/><rect class="cls-1" x="578.04" y="829" width="4.15" height="4.15"/><rect class="cls-1" x="578.16" y="836.43" width="3.93" height="3.9"/><rect class="cls-1" x="578.24" y="843.77" width="3.75" height="3.79"/><rect class="cls-1" x="578.32" y="851.17" width="3.6" height="3.6"/><rect class="cls-1" x="578.34" y="858.53" width="3.56" height="3.45"/><rect class="cls-1" x="578.48" y="865.94" width="3.27" height="3.25"/><rect class="cls-1" x="578.58" y="873.29" width="3.08" height="3.08"/><rect class="cls-1" x="578.65" y="880.65" width="2.93" height="2.95"/><rect class="cls-1" x="578.76" y="888.05" width="2.72" height="2.75"/><rect class="cls-1" x="578.83" y="895.43" width="2.57" height="2.57"/><rect class="cls-1" x="578.93" y="902.82" width="2.39" height="2.39"/><rect class="cls-1" x="579" y="910.3" width="2.22" height="2.1"/><rect class="cls-1" x="579.16" y="917.7" width="1.89" height="1.93"/><rect class="cls-1" x="579.25" y="925.1" width="1.7" height="1.75"/><rect class="cls-1" x="579.33" y="932.47" width="1.55" height="1.55"/><rect class="cls-1" x="579.49" y="939.85" width="1.23" height="1.4"/><rect class="cls-1" x="579.51" y="947.26" width="1.19" height="1.19"/><rect class="cls-1" x="565.79" y="736.88" width="5.79" height="5.79"/><rect class="cls-1" x="565.86" y="744.2" width="5.65" height="5.79"/><rect class="cls-1" x="565.93" y="751.65" width="5.51" height="5.51"/><rect class="cls-1" x="565.99" y="759.02" width="5.39" height="5.2"/><rect class="cls-1" x="566.18" y="766.41" width="5" height="5.2"/><rect class="cls-1" x="566.18" y="773.81" width="5" height="4.82"/><rect class="cls-1" x="566.33" y="781.18" width="4.69" height="4.82"/><rect class="cls-1" x="566.55" y="788.52" width="4.26" height="4.52"/><rect class="cls-1" x="566.6" y="796.06" width="4.15" height="4.15"/><rect class="cls-1" x="566.72" y="803.49" width="3.93" height="3.9"/><rect class="cls-1" x="566.8" y="810.82" width="3.75" height="3.79"/><rect class="cls-1" x="566.88" y="818.23" width="3.6" height="3.6"/><rect class="cls-1" x="566.9" y="825.58" width="3.56" height="3.45"/><rect class="cls-1" x="567.04" y="833" width="3.27" height="3.25"/><rect class="cls-1" x="567.14" y="840.35" width="3.08" height="3.08"/><rect class="cls-1" x="567.21" y="847.7" width="2.93" height="2.95"/><rect class="cls-1" x="567.32" y="855.1" width="2.72" height="2.75"/><rect class="cls-1" x="567.39" y="862.48" width="2.57" height="2.57"/><rect class="cls-1" x="567.49" y="869.87" width="2.39" height="2.39"/><rect class="cls-1" x="567.56" y="877.36" width="2.22" height="2.1"/><rect class="cls-1" x="567.72" y="884.75" width="1.89" height="1.93"/><rect class="cls-1" x="567.81" y="892.16" width="1.7" height="1.75"/><rect class="cls-1" x="567.89" y="899.53" width="1.55" height="1.55"/><rect class="cls-1" x="568.05" y="906.9" width="1.23" height="1.4"/><rect class="cls-1" x="554.08" y="667.16" width="5.79" height="5.79"/><rect class="cls-1" x="554.14" y="674.48" width="5.65" height="5.79"/><rect class="cls-1" x="554.21" y="681.93" width="5.51" height="5.51"/><rect class="cls-1" x="554.27" y="689.3" width="5.39" height="5.2"/><rect class="cls-1" x="554.46" y="696.7" width="5" height="5.2"/><rect class="cls-1" x="554.46" y="704.09" width="5" height="4.82"/><rect class="cls-1" x="554.62" y="711.47" width="4.69" height="4.82"/><rect class="cls-1" x="554.84" y="718.8" width="4.26" height="4.52"/><rect class="cls-1" x="554.89" y="726.34" width="4.15" height="4.15"/><rect class="cls-1" x="555" y="733.77" width="3.93" height="3.9"/><rect class="cls-1" x="555.09" y="741.11" width="3.75" height="3.79"/><rect class="cls-1" x="555.16" y="748.51" width="3.6" height="3.6"/><rect class="cls-1" x="555.18" y="755.87" width="3.56" height="3.45"/><rect class="cls-1" x="555.33" y="763.28" width="3.27" height="3.25"/><rect class="cls-1" x="555.43" y="770.63" width="3.08" height="3.08"/><rect class="cls-1" x="539.2" y="768.46" width="3.6" height="3.6"/><rect class="cls-1" x="539.22" y="775.82" width="3.56" height="3.45"/><rect class="cls-1" x="539.37" y="783.23" width="3.27" height="3.25"/><rect class="cls-1" x="539.46" y="790.58" width="3.08" height="3.08"/><rect class="cls-1" x="539.54" y="797.94" width="2.93" height="2.95"/><rect class="cls-1" x="539.64" y="805.34" width="2.72" height="2.75"/><rect class="cls-1" x="539.72" y="812.71" width="2.57" height="2.57"/><rect class="cls-1" x="539.81" y="820.11" width="2.39" height="2.39"/><rect class="cls-1" x="539.88" y="827.59" width="2.22" height="2.1"/><rect class="cls-1" x="540.04" y="834.99" width="1.89" height="1.93"/><rect class="cls-1" x="540.13" y="842.39" width="1.7" height="1.75"/><rect class="cls-1" x="516.51" y="775.04" width="4.69" height="4.82"/><rect class="cls-1" x="516.73" y="782.37" width="4.26" height="4.52"/><rect class="cls-1" x="516.78" y="789.91" width="4.15" height="4.15"/><rect class="cls-1" x="516.89" y="797.35" width="3.93" height="3.9"/><rect class="cls-1" x="516.98" y="804.68" width="3.75" height="3.79"/><rect class="cls-1" x="517.06" y="812.08" width="3.6" height="3.6"/><rect class="cls-1" x="517.08" y="819.44" width="3.56" height="3.45"/><rect class="cls-1" x="517.22" y="826.85" width="3.27" height="3.25"/><rect class="cls-1" x="517.32" y="834.2" width="3.08" height="3.08"/><rect class="cls-1" x="517.39" y="841.56" width="2.93" height="2.95"/><rect class="cls-1" x="517.5" y="848.96" width="2.72" height="2.75"/><rect class="cls-1" x="517.57" y="856.34" width="2.57" height="2.57"/><rect class="cls-1" x="517.67" y="863.73" width="2.39" height="2.39"/><rect class="cls-1" x="517.73" y="871.21" width="2.22" height="2.1"/><rect class="cls-1" x="517.9" y="878.61" width="1.89" height="1.93"/><rect class="cls-1" x="517.99" y="886.01" width="1.7" height="1.75"/><rect class="cls-1" x="518.07" y="893.38" width="1.55" height="1.55"/><rect class="cls-1" x="503.93" y="673.34" width="5.39" height="5.2"/><rect class="cls-1" x="504.12" y="680.74" width="5" height="5.2"/><rect class="cls-1" x="504.12" y="688.13" width="5" height="4.82"/><rect class="cls-1" x="504.28" y="695.5" width="4.69" height="4.82"/><rect class="cls-1" x="504.49" y="702.84" width="4.26" height="4.52"/><rect class="cls-1" x="504.55" y="710.38" width="4.15" height="4.15"/><rect class="cls-1" x="504.66" y="717.81" width="3.93" height="3.9"/><rect class="cls-1" x="504.75" y="725.15" width="3.75" height="3.79"/><rect class="cls-1" x="504.82" y="732.55" width="3.6" height="3.6"/><rect class="cls-1" x="504.84" y="739.91" width="3.56" height="3.45"/><rect class="cls-1" x="504.99" y="747.32" width="3.27" height="3.25"/><rect class="cls-1" x="505.08" y="754.67" width="3.08" height="3.08"/><rect class="cls-1" x="505.16" y="762.02" width="2.93" height="2.95"/><rect class="cls-1" x="505.26" y="769.43" width="2.72" height="2.75"/><rect class="cls-1" x="505.34" y="776.8" width="2.57" height="2.57"/><rect class="cls-1" x="505.43" y="784.2" width="2.39" height="2.39"/><rect class="cls-1" x="505.5" y="791.68" width="2.22" height="2.1"/><rect class="cls-1" x="505.66" y="799.08" width="1.89" height="1.93"/><rect class="cls-1" x="505.75" y="806.48" width="1.7" height="1.75"/><rect class="cls-1" x="505.83" y="813.85" width="1.55" height="1.55"/><rect class="cls-1" x="505.99" y="821.23" width="1.23" height="1.4"/><rect class="cls-1" x="506.01" y="828.64" width="1.19" height="1.19"/><rect class="cls-1" x="490.13" y="638.14" width="4.26" height="4.52"/><rect class="cls-1" x="490.19" y="645.68" width="4.15" height="4.15"/><rect class="cls-1" x="490.3" y="653.11" width="3.93" height="3.9"/><rect class="cls-1" x="490.39" y="660.44" width="3.75" height="3.79"/><rect class="cls-1" x="490.46" y="667.85" width="3.6" height="3.6"/><rect class="cls-1" x="490.48" y="675.2" width="3.56" height="3.45"/><rect class="cls-1" x="490.63" y="682.62" width="3.27" height="3.25"/><rect class="cls-1" x="490.72" y="689.96" width="3.08" height="3.08"/><rect class="cls-1" x="490.8" y="697.32" width="2.93" height="2.95"/><rect class="cls-1" x="490.9" y="704.72" width="2.72" height="2.75"/><rect class="cls-1" x="490.98" y="712.1" width="2.57" height="2.57"/><rect class="cls-1" x="491.07" y="719.49" width="2.39" height="2.39"/><rect class="cls-1" x="491.14" y="726.98" width="2.22" height="2.1"/><rect class="cls-1" x="491.3" y="734.37" width="1.89" height="1.93"/><rect class="cls-1" x="491.39" y="741.77" width="1.7" height="1.75"/><rect class="cls-1" x="491.47" y="749.15" width="1.55" height="1.55"/><rect class="cls-1" x="491.63" y="756.52" width="1.23" height="1.4"/><rect class="cls-1" x="491.65" y="763.94" width="1.19" height="1.19"/><rect class="cls-1" x="478.26" y="638.14" width="5" height="4.82"/><rect class="cls-1" x="478.41" y="645.51" width="4.69" height="4.82"/><rect class="cls-1" x="478.63" y="652.85" width="4.26" height="4.52"/><rect class="cls-1" x="478.68" y="660.39" width="4.15" height="4.15"/><rect class="cls-1" x="478.8" y="667.82" width="3.93" height="3.9"/><rect class="cls-1" x="478.88" y="675.15" width="3.75" height="3.79"/><rect class="cls-1" x="478.96" y="682.56" width="3.6" height="3.6"/><rect class="cls-1" x="478.98" y="689.91" width="3.56" height="3.45"/><rect class="cls-1" x="479.12" y="697.33" width="3.27" height="3.25"/><rect class="cls-1" x="479.22" y="704.68" width="3.08" height="3.08"/><rect class="cls-1" x="479.29" y="712.03" width="2.93" height="2.95"/><rect class="cls-1" x="479.4" y="719.43" width="2.72" height="2.75"/><rect class="cls-1" x="479.47" y="726.81" width="2.57" height="2.57"/><rect class="cls-1" x="479.57" y="734.2" width="2.39" height="2.39"/><rect class="cls-1" x="479.64" y="741.69" width="2.22" height="2.1"/><rect class="cls-1" x="479.8" y="749.08" width="1.89" height="1.93"/><rect class="cls-1" x="479.89" y="756.48" width="1.7" height="1.75"/><rect class="cls-1" x="466.28" y="676.93" width="2.57" height="2.57"/><rect class="cls-1" x="466.38" y="684.32" width="2.39" height="2.39"/><rect class="cls-1" x="466.45" y="691.81" width="2.22" height="2.1"/><rect class="cls-1" x="466.61" y="699.2" width="1.89" height="1.93"/><rect class="cls-1" x="466.7" y="706.6" width="1.7" height="1.75"/><rect class="cls-1" x="466.78" y="713.97" width="1.55" height="1.55"/><rect class="cls-1" x="466.94" y="721.35" width="1.23" height="1.4"/><rect class="cls-1" x="466.96" y="728.77" width="1.19" height="1.19"/><rect class="cls-1" x="456.58" y="638.14" width="3.56" height="3.45"/><rect class="cls-1" x="456.73" y="645.55" width="3.27" height="3.25"/><rect class="cls-1" x="456.82" y="652.9" width="3.08" height="3.08"/><rect class="cls-1" x="456.9" y="660.25" width="2.93" height="2.95"/><rect class="cls-1" x="457" y="667.66" width="2.72" height="2.75"/><rect class="cls-1" x="457.07" y="675.03" width="2.57" height="2.57"/><rect class="cls-1" x="457.17" y="682.43" width="2.39" height="2.39"/><rect class="cls-1" x="457.24" y="689.91" width="2.22" height="2.1"/><rect class="cls-1" x="457.4" y="697.31" width="1.89" height="1.93"/><rect class="cls-1" x="457.49" y="704.71" width="1.7" height="1.75"/><rect class="cls-1" x="445.16" y="639.49" width="4.2" height="4.2"/><rect class="cls-1" x="445.28" y="647" width="3.97" height="3.95"/><rect class="cls-1" x="445.37" y="654.42" width="3.8" height="3.83"/><rect class="cls-1" x="445.44" y="661.91" width="3.64" height="3.64"/><rect class="cls-1" x="445.46" y="669.34" width="3.6" height="3.49"/><rect class="cls-1" x="445.61" y="676.84" width="3.31" height="3.28"/><rect class="cls-1" x="445.71" y="684.27" width="3.11" height="3.11"/><rect class="cls-1" x="445.78" y="691.71" width="2.97" height="2.99"/><rect class="cls-1" x="445.89" y="699.2" width="2.75" height="2.78"/><rect class="cls-1" x="445.96" y="706.66" width="2.6" height="2.6"/><rect class="cls-1" x="446.06" y="714.14" width="2.41" height="2.41"/><rect class="cls-1" x="446.13" y="721.71" width="2.24" height="2.12"/><rect class="cls-1" x="445.25" y="618.77" width="4.04" height="4.07" transform="translate(894.53 1241.61) rotate(-180)"/><rect class="cls-1" x="445.33" y="611.01" width="3.87" height="3.87" transform="translate(894.53 1225.89) rotate(-180)"/><rect class="cls-1" x="445.35" y="603.27" width="3.83" height="3.71" transform="translate(894.53 1210.24) rotate(-180)"/><rect class="cls-1" x="445.5" y="595.51" width="3.52" height="3.49" transform="translate(894.53 1194.51) rotate(-180)"/><rect class="cls-1" x="445.61" y="587.8" width="3.31" height="3.31" transform="translate(894.53 1178.9) rotate(-180)"/><rect class="cls-1" x="445.69" y="580.02" width="3.15" height="3.18" transform="translate(894.53 1163.21) rotate(-180)"/><rect class="cls-1" x="445.8" y="572.28" width="2.92" height="2.96" transform="translate(894.53 1147.51) rotate(-180)"/><rect class="cls-1" x="445.88" y="564.54" width="2.77" height="2.77" transform="translate(894.53 1131.84) rotate(-180)"/><rect class="cls-1" x="445.98" y="556.79" width="2.57" height="2.57" transform="translate(894.53 1116.15) rotate(-180)"/><rect class="cls-1" x="446.09" y="549.05" width="2.38" height="2.26" transform="translate(894.56 1100.36) rotate(-180)"/><rect class="cls-1" x="446.27" y="541.29" width="2.03" height="2.07" transform="translate(894.56 1084.65) rotate(-180)"/><rect class="cls-1" x="446.37" y="533.53" width="1.83" height="1.88" transform="translate(894.56 1068.93) rotate(-180)"/><rect class="cls-1" x="478.44" y="596.83" width="2.92" height="2.96" transform="translate(959.81 1196.61) rotate(-180)"/><rect class="cls-1" x="478.52" y="589.09" width="2.77" height="2.77" transform="translate(959.81 1180.94) rotate(-180)"/><rect class="cls-1" x="478.62" y="581.34" width="2.57" height="2.57" transform="translate(959.81 1165.25) rotate(-180)"/><rect class="cls-1" x="478.73" y="573.6" width="2.38" height="2.26" transform="translate(959.84 1149.46) rotate(-180)"/><rect class="cls-1" x="478.9" y="565.84" width="2.03" height="2.07" transform="translate(959.84 1133.75) rotate(-180)"/><rect class="cls-1" x="479" y="558.08" width="1.83" height="1.88" transform="translate(959.84 1118.03) rotate(-180)"/><rect class="cls-1" x="636.57" y="467.82" width="6.59" height="6.62" transform="translate(1279.73 942.26) rotate(-180)"/><rect class="cls-1" x="636.7" y="460.36" width="6.27" height="6.41" transform="translate(1279.67 927.14) rotate(-180)"/><rect class="cls-1" x="636.68" y="452.96" width="6.32" height="6.62" transform="translate(1279.67 912.55) rotate(-180)"/><rect class="cls-1" x="636.82" y="446.08" width="6.02" height="6.16" transform="translate(1279.67 898.32) rotate(-180)"/><rect class="cls-1" x="637.01" y="439.32" width="5.65" height="5.97" transform="translate(1279.67 884.6) rotate(-180)"/><rect class="cls-1" x="637.11" y="432.63" width="5.45" height="5.65" transform="translate(1279.67 870.91) rotate(-180)"/><rect class="cls-1" x="637.11" y="425.93" width="5.45" height="5.45" transform="translate(1279.67 857.3) rotate(-180)"/><rect class="cls-1" x="637.18" y="419.04" width="5.32" height="5.45" transform="translate(1279.67 843.53) rotate(-180)"/><rect class="cls-1" x="637.24" y="412.29" width="5.19" height="5.19" transform="translate(1279.67 829.76) rotate(-180)"/><rect class="cls-1" x="637.3" y="405.64" width="5.07" height="4.89" transform="translate(1279.67 816.18) rotate(-180)"/><rect class="cls-1" x="637.48" y="398.68" width="4.71" height="4.89" transform="translate(1279.68 802.26) rotate(-180)"/><rect class="cls-1" x="637.48" y="392.08" width="4.71" height="4.54" transform="translate(1279.68 788.69) rotate(-180)"/><rect class="cls-1" x="637.63" y="385.13" width="4.42" height="4.54" transform="translate(1279.68 774.81) rotate(-180)"/><rect class="cls-1" x="637.83" y="378.52" width="4.01" height="4.25" transform="translate(1279.68 761.28) rotate(-180)"/><rect class="cls-1" x="637.88" y="371.76" width="3.91" height="3.91" transform="translate(1279.68 747.43) rotate(-180)"/><rect class="cls-1" x="637.99" y="365" width="3.7" height="3.67" transform="translate(1279.68 733.68) rotate(-180)"/><rect class="cls-1" x="638.07" y="358.2" width="3.53" height="3.57" transform="translate(1279.68 719.98) rotate(-180)"/><rect class="cls-1" x="638.14" y="351.41" width="3.39" height="3.39" transform="translate(1279.68 706.21) rotate(-180)"/><rect class="cls-1" x="638.16" y="344.63" width="3.35" height="3.25" transform="translate(1279.68 692.51) rotate(-180)"/><rect class="cls-1" x="638.3" y="337.84" width="3.08" height="3.06" transform="translate(1279.68 678.74) rotate(-180)"/><rect class="cls-1" x="638.39" y="331.09" width="2.9" height="2.9" transform="translate(1279.68 665.07) rotate(-180)"/><rect class="cls-1" x="638.46" y="324.28" width="2.76" height="2.78" transform="translate(1279.68 651.34) rotate(-180)"/><rect class="cls-1" x="638.56" y="317.5" width="2.56" height="2.59" transform="translate(1279.68 637.59) rotate(-180)"/><rect class="cls-1" x="638.63" y="310.72" width="2.42" height="2.42" transform="translate(1279.68 623.87) rotate(-180)"/><rect class="cls-1" x="638.71" y="303.94" width="2.25" height="2.25" transform="translate(1279.68 610.13) rotate(-180)"/><rect class="cls-1" x="638.81" y="297.16" width="2.09" height="1.98" transform="translate(1279.71 596.31) rotate(-180)"/><rect class="cls-1" x="638.96" y="290.37" width="1.78" height="1.81" transform="translate(1279.71 582.55) rotate(-180)"/><rect class="cls-1" x="639.05" y="283.57" width="1.6" height="1.64" transform="translate(1279.71 568.78) rotate(-180)"/><rect class="cls-1" x="639.12" y="276.81" width="1.46" height="1.46" transform="translate(1279.71 555.08) rotate(-180)"/><rect class="cls-1" x="639.27" y="270.02" width="1.16" height="1.31" transform="translate(1279.71 541.35) rotate(-180)"/><rect class="cls-1" x="639.29" y="263.23" width="1.12" height="1.12" transform="translate(1279.7 527.58) rotate(-180)"/><rect class="cls-1" x="572.65" y="319.12" width="4.01" height="4.25" transform="translate(1149.31 642.5) rotate(-180)"/><rect class="cls-1" x="572.7" y="312.37" width="3.91" height="3.91" transform="translate(1149.31 628.64) rotate(-180)"/><rect class="cls-1" x="572.8" y="305.61" width="3.7" height="3.67" transform="translate(1149.31 614.89) rotate(-180)"/><rect class="cls-1" x="572.89" y="298.81" width="3.53" height="3.57" transform="translate(1149.31 601.19) rotate(-180)"/><rect class="cls-1" x="572.96" y="292.01" width="3.39" height="3.39" transform="translate(1149.31 587.42) rotate(-180)"/><rect class="cls-1" x="572.98" y="285.24" width="3.35" height="3.25" transform="translate(1149.31 573.72) rotate(-180)"/><rect class="cls-1" x="573.11" y="278.45" width="3.08" height="3.06" transform="translate(1149.31 559.95) rotate(-180)"/><rect class="cls-1" x="573.21" y="271.69" width="2.9" height="2.9" transform="translate(1149.31 546.28) rotate(-180)"/><rect class="cls-1" x="573.27" y="264.88" width="2.76" height="2.78" transform="translate(1149.31 532.55) rotate(-180)"/><rect class="cls-1" x="573.37" y="258.11" width="2.56" height="2.59" transform="translate(1149.31 518.8) rotate(-180)"/><rect class="cls-1" x="573.44" y="251.33" width="2.42" height="2.42" transform="translate(1149.31 505.08) rotate(-180)"/><rect class="cls-1" x="573.53" y="244.55" width="2.25" height="2.25" transform="translate(1149.31 491.34) rotate(-180)"/><rect class="cls-1" x="573.63" y="237.77" width="2.09" height="1.98" transform="translate(1149.34 477.52) rotate(-180)"/><rect class="cls-1" x="662.36" y="546.33" width="4.42" height="4.42"/><rect class="cls-1" x="662.36" y="536.48" width="4.42" height="4.42"/><rect class="cls-1" x="662.36" y="526.62" width="4.42" height="4.42"/><rect class="cls-1" x="662.36" y="516.77" width="4.42" height="4.42"/><rect class="cls-1" x="662.36" y="506.91" width="4.42" height="4.42"/><rect class="cls-1" x="662.36" y="497.06" width="4.42" height="4.42"/><rect class="cls-1" x="662.6" y="487.1" width="3.94" height="3.94"/><rect class="cls-1" x="662.6" y="478.32" width="3.94" height="3.94"/><rect class="cls-1" x="662.6" y="469.53" width="3.94" height="3.94"/><rect class="cls-1" x="662.6" y="460.74" width="3.94" height="3.94"/><rect class="cls-1" x="662.6" y="451.95" width="3.94" height="3.94"/><rect class="cls-1" x="662.6" y="443.16" width="3.94" height="3.94"/><rect class="cls-1" x="662.6" y="434.37" width="3.94" height="3.94"/><rect class="cls-1" x="662.6" y="425.58" width="3.94" height="3.94"/><rect class="cls-1" x="662.6" y="416.79" width="3.94" height="3.94"/><rect class="cls-1" x="662.83" y="408.45" width="3.49" height="3.49"/><rect class="cls-1" x="662.83" y="400.67" width="3.49" height="3.49"/><rect class="cls-1" x="662.83" y="392.9" width="3.49" height="3.49"/><rect class="cls-1" x="662.83" y="385.12" width="3.49" height="3.49"/><rect class="cls-1" x="662.83" y="377.34" width="3.49" height="3.49"/><rect class="cls-1" x="662.83" y="369.56" width="3.49" height="3.49"/><rect class="cls-1" x="662.83" y="361.79" width="3.49" height="3.49"/><rect class="cls-1" x="662.83" y="354.01" width="3.49" height="3.49"/><rect class="cls-1" x="663.42" y="348.49" width="2.29" height="2.29"/><rect class="cls-1" x="663.42" y="343.38" width="2.29" height="2.29"/><rect class="cls-1" x="663.42" y="338.26" width="2.29" height="2.29"/><rect class="cls-1" x="663.42" y="333.15" width="2.29" height="2.29"/><rect class="cls-1" x="663.42" y="328.04" width="2.29" height="2.29"/><rect class="cls-1" x="663.42" y="322.92" width="2.29" height="2.29"/><rect class="cls-1" x="663.42" y="317.81" width="2.29" height="2.29"/><rect class="cls-1" x="663.6" y="313.09" width="1.95" height="1.95"/><rect class="cls-1" x="663.6" y="308.75" width="1.95" height="1.95"/><rect class="cls-1" x="663.6" y="304.4" width="1.95" height="1.95"/><rect class="cls-1" x="663.6" y="300.05" width="1.95" height="1.95"/><rect class="cls-1" x="663.6" y="295.71" width="1.95" height="1.95"/><polygon class="cls-1" points="594.88 81.7 600.86 63.08 606.87 81.43 626.35 81.43 610.62 92.93 616.75 111.65 600.86 100.09 584.9 111.65 591.03 93.14 574.97 81.43 594.88 81.7"/></g></svg>